<svg id="Calque_1" data-name="Calque 1" xmlns="http://www.w3.org/2000/svg" width="530.6" height="254.539" viewBox="0 0 530.6 254.539">
  <path id="Path_12" data-name="Path 12" d="M166.977,77.615Q83.489,77.221,0,76.218V0Q83.228,10.309,166.977,14.4Z" fill="#5463ff"/>
  <path id="Path_13" data-name="Path 13" d="M402.4,82.1q-83.715.3-167.424,0V19.46q83.726,3.09,167.424,0Z" transform="translate(-53.398 -4.42)" fill="#5463ff"/>
  <path id="Path_14" data-name="Path 14" d="M637.534,76.218q-83.454,1.015-166.977,1.4V14.4q83.8-4.087,166.977-14.4Z" transform="translate(-106.952)" fill="#5463ff"/>
  <path id="Path_15" data-name="Path 15" d="M166.977,181.2Q83.2,185.3,0,195.605V119.387q83.46-1,166.977-1.4Z" transform="translate(0 -26.813)" fill="#5463ff"/>
  <path id="Path_16" data-name="Path 16" d="M402.406,180.529q-83.72-3.09-167.406,0V117.866q83.709-.3,167.424,0Z" transform="translate(-53.406 -26.753)" fill="#5463ff"/>
  <path id="Path_17" data-name="Path 17" d="M637.52,195.61Q554.281,185.3,470.56,181.2V118q83.454.394,166.977,1.4Z" transform="translate(-106.938 -26.818)" fill="#5463ff"/>
  <path id="Path_18" data-name="Path 18" d="M8.085,301.271c2.232-2.279,3.363-3.415,5.612-5.688a1.072,1.072,0,0,1,1.548,0,19.172,19.172,0,0,0,15.625,3.949c4.5-.528,11.474-3.665,10.436-8.7-2.98-14.187-34.474-6.575-36.816-26.044-1.293-10.674,8.407-19.173,18.733-20.2a34.624,34.624,0,0,1,21.406,5.8,1.02,1.02,0,0,1,.238,1.548c-1.873,2.6-2.795,3.908-4.638,6.523a1.044,1.044,0,0,1-1.548.261,20.947,20.947,0,0,0-14.68-3.9c-5.218.62-10.68,4.128-9.277,9.062,3.6,12.935,34.138,5.641,36.683,26.212,1.368,11.016-10.378,18.414-19.713,19.643A28.943,28.943,0,0,1,8.12,302.825a1.044,1.044,0,0,1,0-1.548Z" transform="translate(-0.977 -55.536)" fill="#5463ff"/>
  <path id="Path_19" data-name="Path 19" d="M98.965,238.078a35.531,35.531,0,0,1,17.7,3.989,1.038,1.038,0,0,1,.377,1.548c-1.676,2.812-2.51,4.221-4.174,7.033a1,1,0,0,1-1.548.394,19.18,19.18,0,0,0-11.4-2.673c-26.537,2.2-22.826,44.968,3.6,42.5a16.912,16.912,0,0,0,10.709-4.395.922.922,0,0,1,1.461.052c2.087,2.476,3.09,3.71,5.218,6.18a1.159,1.159,0,0,1-.133,1.548,25.8,25.8,0,0,1-16.443,6.865,31.636,31.636,0,0,1-5.357-63.046Z" transform="translate(-16.276 -54.05)" fill="#5463ff"/>
  <path id="Path_20" data-name="Path 20" d="M150.938,295.593l-4.151-58.946a.411.411,0,0,1,.4-.464c6.569-.481,9.856-.713,16.414-1.16,2.441-.162,3.931-.255,4.986-.238,17.393.771,27.047,23.052,10.72,33.227a1.919,1.919,0,0,0-.7,3.091q8.361,10.894,16.582,21.91c.458.58.214.945-.464.974l-9.937.539a2.2,2.2,0,0,1-1.832-.852q-7.624-10.187-15.324-20.333a4.737,4.737,0,0,0-3.9-1.739l-1.739.116a2.267,2.267,0,0,0-2.244,2.58c.539,8.227.812,12.367,1.345,20.576a1.038,1.038,0,0,1-1.026,1.2l-7.972.58a1.044,1.044,0,0,1-1.16-1.084Zm7.873-36a2.319,2.319,0,0,0,2.58,2.319l6.291-.417a8.494,8.494,0,1,0-1.038-16.86l-6.343.418a2.319,2.319,0,0,0-2.267,2.673Z" transform="translate(-33.364 -53.377)" fill="#5463ff"/>
  <path id="Path_21" data-name="Path 21" d="M219.137,232.955a1.049,1.049,0,0,1,1.084-1.159q18.651-.841,37.326-1.386a1.061,1.061,0,0,1,1.159,1.1l.192,7.45a1.061,1.061,0,0,1-1.107,1.16q-12.7.389-25.406.864a2.319,2.319,0,0,0-2.319,2.522c.18,4.366.261,6.546.435,10.911a2.273,2.273,0,0,0,2.522,2.319c7.595-.3,11.4-.441,19-.672a1.038,1.038,0,0,1,1.16,1.09c.087,2.974.133,4.464.214,7.45a1.044,1.044,0,0,1-1.084,1.16c-7.537.232-11.352.371-18.919.672a2.267,2.267,0,0,0-2.319,2.522c.168,4.366.255,6.546.435,10.912a2.249,2.249,0,0,0,2.481,2.319q12.471-.481,24.931-.852a1.038,1.038,0,0,1,1.159,1.1l.191,7.45a1.038,1.038,0,0,1-1.073,1.159q-18.141.487-36.271,1.339a1.026,1.026,0,0,1-1.159-1.072Z" transform="translate(-49.794 -52.347)" fill="#5463ff"/>
  <path id="Path_22" data-name="Path 22" d="M285.27,231.005a1.044,1.044,0,0,1,1.113-1.16q18.663-.394,37.338-.458a1.044,1.044,0,0,1,1.16,1.119v7.45a1.05,1.05,0,0,1-1.131,1.131q-12.709.069-25.424.238a2.319,2.319,0,0,0-2.395,2.464c.069,4.366.1,6.551.168,10.917a2.273,2.273,0,0,0,2.459,2.389c7.607-.116,11.4-.162,19.011-.209a1.05,1.05,0,0,1,1.16,1.119v7.45a1.049,1.049,0,0,1-1.113,1.16c-7.572.046-11.358.087-18.924.2a2.273,2.273,0,0,0-2.371,2.464c.07,4.366.11,6.552.18,10.917a2.256,2.256,0,0,0,2.429,2.389q12.471-.169,24.93-.232a1.038,1.038,0,0,1,1.113,1.119v7.45a1.044,1.044,0,0,1-1.1,1.16q-18.153.046-36.318.441a1.038,1.038,0,0,1-1.131-1.107Q285.879,260.221,285.27,231.005Z" transform="translate(-64.83 -52.142)" fill="#5463ff"/>
  <path id="Path_23" data-name="Path 23" d="M351.382,230.51a1.05,1.05,0,0,1,1.16-1.119h1.316a2.9,2.9,0,0,1,1.832.771q16.553,17.875,32.758,36.051c.417.441.672.62,1.02.626s.609-.418.626-1.281q.366-17.278.725-34.567a1.05,1.05,0,0,1,1.16-1.107l8.221.2a1.049,1.049,0,0,1,1.107,1.16L399.8,289.625a1.043,1.043,0,0,1-1.16,1.1h-1.188a2.557,2.557,0,0,1-1.85-.911q-15.956-18.309-32.265-36.265a1.327,1.327,0,0,0-1.038-.62c-.348,0-.609.435-.62,1.3q-.134,17.365-.261,34.787a1.043,1.043,0,0,1-1.113,1.119c-3.2,0-4.8-.041-7.99-.046a1.043,1.043,0,0,1-1.107-1.131Q351.289,259.72,351.382,230.51Z" transform="translate(-79.818 -52.128)" fill="#5463ff"/>
  <path id="Path_24" data-name="Path 24" d="M433.807,230.926q18.663.649,37.315,1.618a1.044,1.044,0,0,1,1.073,1.159c-.145,2.974-.226,4.464-.371,7.445a1.061,1.061,0,0,1-1.188,1.067q-18.553-.992-37.147-1.6a1.061,1.061,0,0,1-1.1-1.16c.092-2.98.145-4.464.238-7.45a1.049,1.049,0,0,1,1.159-1.09Zm-.945,28.751q15.306.516,30.618,1.276a1.043,1.043,0,0,1,1.066,1.159c-.139,2.974-.214,4.464-.353,7.439a1.038,1.038,0,0,1-1.16,1.067c-7.537-.371-11.329-.534-18.883-.835a2.25,2.25,0,0,0-2.487,2.319c-.278,7.45-.412,11.172-.69,18.617a1.026,1.026,0,0,1-1.159,1.084l-7.99-.284a1.038,1.038,0,0,1-1.067-1.159l.957-29.609a1.038,1.038,0,0,1,1.16-1.09Z" transform="translate(-97.892 -52.481)" fill="#5463ff"/>
  <path id="Path_25" data-name="Path 25" d="M497.208,234.987a1.05,1.05,0,0,1,1.2-1.061l8.2.493a1.05,1.05,0,0,1,1.067,1.2l-2.319,38.915a1.043,1.043,0,0,1-1.16,1.061c-3.218-.2-4.83-.3-8.054-.487a1.05,1.05,0,0,1-1.049-1.188Zm-2.812,50.87a1.038,1.038,0,0,1,1.16-1.067q18.216,1.073,36.4,2.458a1.043,1.043,0,0,1,1.02,1.212l-.539,7.427a1.037,1.037,0,0,1-1.188,1.044q-18.107-1.4-36.237-2.453a1.037,1.037,0,0,1-1.043-1.159c.191-3,.255-4.464.423-7.456Z" transform="translate(-112.255 -53.161)" fill="#5463ff"/>
  <path id="Path_26" data-name="Path 26" d="M558.226,246.728l.58-7.427a1.038,1.038,0,0,1,1.224-1.026q18.622,1.548,37.234,3.374a1.061,1.061,0,0,1,1.021,1.235c-.284,2.968-.423,4.452-.714,7.421a1.044,1.044,0,0,1-1.235,1q-18.553-1.855-37.106-3.369a1.049,1.049,0,0,1-1.015-1.212ZM556.834,264.7a1.038,1.038,0,0,1,1.206-1.026q18.409,1.548,36.793,3.34a1.054,1.054,0,0,1,1.008,1.235c-.283,2.969-.423,4.453-.712,7.421a1.037,1.037,0,0,1-1.224,1q-18.3-1.837-36.63-3.322a1.05,1.05,0,0,1-1.027-1.212Zm-.771,24.351q18.182,1.5,36.318,3.3a1.049,1.049,0,0,1,1,1.235c-.284,2.969-.435,4.453-.719,7.41a1.026,1.026,0,0,1-1.206,1.014q-18.084-1.826-36.19-3.281a1.045,1.045,0,0,1-1.015-1.212c.232-2.974.348-4.458.58-7.427a1.038,1.038,0,0,1,1.224-1.038Z" transform="translate(-125.958 -54.142)" fill="#5463ff"/>
  <path id="Path_27" data-name="Path 27" d="M615.193,303.388q9.73-12.756,19.621-25.308a4,4,0,0,0,.446-4.134q-7.038-14.535-14.2-28.989c-.3-.644-.087-.968.62-.9,3.966.418,5.949.632,9.92,1.073a2.042,2.042,0,0,1,1.646,1.159Q648.473,277.466,662.915,309c.262.65,0,.957-.626.882-3.861-.493-5.8-.771-9.636-1.212a1.983,1.983,0,0,1-1.548-1.159c-3.479-7.537-5.218-11.265-8.778-18.762-.353-.655-.771-1.05-1.159-1.1a1.856,1.856,0,0,0-1.386.771c-5.113,6.482-7.647,9.734-12.7,16.234a1.961,1.961,0,0,1-1.792.771c-3.867-.423-5.8-.632-9.654-1.044C614.933,304.316,614.793,303.956,615.193,303.388Zm32.468-41.518c4.058-5.1,6.129-7.642,10.256-12.72a2.006,2.006,0,0,1,1.855-.725c3.966.487,5.949.771,9.914,1.252.58.075.829.458.4,1.014q-8.7,10.639-17.359,21.388c-.418.58-.928.493-1.206-.145-1.606-3.27-2.418-4.9-4.058-8.169a1.86,1.86,0,0,1,.214-1.9Z" transform="translate(-139.754 -55.455)" fill="#5463ff"/>
</svg>
